<svg xmlns="http://www.w3.org/2000/svg" xmlns:xlink="http://www.w3.org/1999/xlink" width="500" zoomAndPan="magnify" viewBox="0 0 375 374.999991" height="500" preserveAspectRatio="xMidYMid meet" version="1.0"><defs><filter x="0%" y="0%" width="100%" height="100%" id="a96922424d"><feColorMatrix values="0 0 0 0 1 0 0 0 0 1 0 0 0 0 1 0 0 0 1 0" color-interpolation-filters="sRGB"/></filter><g/><clipPath id="76134da291"><path d="M 40 220 L 75 220 L 75 246.636719 L 40 246.636719 Z M 40 220 " clip-rule="nonzero"/></clipPath><clipPath id="cfaac25ddb"><path d="M 15.039062 167 L 75 167 L 75 225 L 15.039062 225 Z M 15.039062 167 " clip-rule="nonzero"/></clipPath><clipPath id="d7136b4c8d"><path d="M 79 220 L 114 220 L 114 246.636719 L 79 246.636719 Z M 79 220 " clip-rule="nonzero"/></clipPath><clipPath id="9f6ce3d4da"><path d="M 79 167 L 139.539062 167 L 139.539062 225 L 79 225 Z M 79 167 " clip-rule="nonzero"/></clipPath><clipPath id="40a62aebbb"><path d="M 76 85.386719 L 78 85.386719 L 78 118 L 76 118 Z M 76 85.386719 " clip-rule="nonzero"/></clipPath><clipPath id="85e4d89457"><path d="M 15.039062 166 L 76 166 L 76 225 L 15.039062 225 Z M 15.039062 166 " clip-rule="nonzero"/></clipPath><mask id="8b2e40c939"><g filter="url(#a96922424d)"><rect x="-37.5" width="450" fill="#000000" y="-37.499999" height="449.999989" fill-opacity="0.2"/></g></mask><clipPath id="ba55e75057"><path d="M 0.0390625 1 L 60 1 L 60 58.160156 L 0.0390625 58.160156 Z M 0.0390625 1 " clip-rule="nonzero"/></clipPath><clipPath id="eab8816144"><rect x="0" width="61" y="0" height="59"/></clipPath><mask id="84c30e9152"><g filter="url(#a96922424d)"><rect x="-37.5" width="450" fill="#000000" y="-37.499999" height="449.999989" fill-opacity="0.2"/></g></mask><clipPath id="5a940cc2ec"><path d="M 1 0.441406 L 56.640625 0.441406 L 56.640625 43.398438 L 1 43.398438 Z M 1 0.441406 " clip-rule="nonzero"/></clipPath><clipPath id="51ba1c77d5"><rect x="0" width="57" y="0" height="44"/></clipPath><clipPath id="eadf72f8d7"><path d="M 40 220 L 75 220 L 75 246.636719 L 40 246.636719 Z M 40 220 " clip-rule="nonzero"/></clipPath><mask id="0bf3e7e54b"><g filter="url(#a96922424d)"><rect x="-37.5" width="450" fill="#000000" y="-37.499999" height="449.999989" fill-opacity="0.2"/></g></mask><clipPath id="d830c19ad9"><path d="M 0.800781 0.320312 L 34.640625 0.320312 L 34.640625 26.636719 L 0.800781 26.636719 Z M 0.800781 0.320312 " clip-rule="nonzero"/></clipPath><clipPath id="a741c2126b"><rect x="0" width="35" y="0" height="27"/></clipPath><clipPath id="4f96cffedc"><path d="M 79 166 L 139.539062 166 L 139.539062 225 L 79 225 Z M 79 166 " clip-rule="nonzero"/></clipPath><mask id="b6b3d82abb"><g filter="url(#a96922424d)"><rect x="-37.5" width="450" fill="#000000" y="-37.499999" height="449.999989" fill-opacity="0.2"/></g></mask><clipPath id="34dbfcd7d2"><path d="M 0.441406 1 L 60.539062 1 L 60.539062 58.160156 L 0.441406 58.160156 Z M 0.441406 1 " clip-rule="nonzero"/></clipPath><clipPath id="8ac0f1c6ac"><rect x="0" width="61" y="0" height="59"/></clipPath><mask id="d8c76619f3"><g filter="url(#a96922424d)"><rect x="-37.5" width="450" fill="#000000" y="-37.499999" height="449.999989" fill-opacity="0.2"/></g></mask><clipPath id="c86285a11b"><path d="M 0.679688 0.441406 L 56.839844 0.441406 L 56.839844 43.398438 L 0.679688 43.398438 Z M 0.679688 0.441406 " clip-rule="nonzero"/></clipPath><clipPath id="07ab674295"><rect x="0" width="57" y="0" height="44"/></clipPath><clipPath id="b84481859c"><path d="M 79 220 L 114 220 L 114 246.636719 L 79 246.636719 Z M 79 220 " clip-rule="nonzero"/></clipPath><mask id="b542912c2d"><g filter="url(#a96922424d)"><rect x="-37.5" width="450" fill="#000000" y="-37.499999" height="449.999989" fill-opacity="0.2"/></g></mask><clipPath id="a3ee170c99"><path d="M 0.679688 0.320312 L 34.761719 0.320312 L 34.761719 26.636719 L 0.679688 26.636719 Z M 0.679688 0.320312 " clip-rule="nonzero"/></clipPath><clipPath id="72477280db"><rect x="0" width="35" y="0" height="27"/></clipPath><mask id="e1725cfc50"><g filter="url(#a96922424d)"><rect x="-37.5" width="450" fill="#000000" y="-37.499999" height="449.999989" fill-opacity="0.2"/></g></mask><clipPath id="99bce65e38"><path d="M 1 1 L 56.761719 1 L 56.761719 32.960938 L 1 32.960938 Z M 1 1 " clip-rule="nonzero"/></clipPath><clipPath id="47d72225d1"><rect x="0" width="57" y="0" height="33"/></clipPath><mask id="7d28eb9d7a"><g filter="url(#a96922424d)"><rect x="-37.5" width="450" fill="#000000" y="-37.499999" height="449.999989" fill-opacity="0.2"/></g></mask><clipPath id="4cf478519c"><path d="M 0.519531 0.28125 L 36.761719 0.28125 L 36.761719 46.359375 L 0.519531 46.359375 Z M 0.519531 0.28125 " clip-rule="nonzero"/></clipPath><clipPath id="9c00b78489"><rect x="0" width="37" y="0" height="47"/></clipPath></defs><path fill="#00bf63" d="M 128.269531 139.933594 L 77.511719 156.730469 L 22.042969 138.363281 L 77.511719 125.011719 L 126.496094 136.800781 L 84.246094 136.800781 C 83.105469 135.433594 80.523438 134.476562 77.511719 134.476562 C 73.453125 134.476562 70.160156 136.214844 70.160156 138.363281 C 70.160156 140.511719 73.453125 142.25 77.511719 142.25 C 80.523438 142.25 83.105469 141.292969 84.246094 139.925781 Z M 128.269531 139.933594 " fill-opacity="1" fill-rule="nonzero"/><path fill="#00bf63" d="M 124.480469 164.019531 L 121.890625 155 C 122.261719 154.753906 122.539062 154.429688 122.726562 154.027344 C 122.914062 153.621094 122.980469 153.199219 122.929688 152.757812 C 122.878906 152.316406 122.714844 151.921875 122.4375 151.574219 C 122.160156 151.226562 121.8125 150.976562 121.394531 150.824219 L 121.394531 140.398438 L 119.769531 140.878906 L 119.769531 150.824219 C 119.351562 150.976562 119.003906 151.226562 118.730469 151.574219 C 118.453125 151.921875 118.289062 152.316406 118.238281 152.757812 C 118.183594 153.199219 118.253906 153.625 118.441406 154.027344 C 118.628906 154.429688 118.90625 154.753906 119.277344 155 L 116.691406 164.019531 C 116.605469 164.320312 116.554688 164.628906 116.539062 164.941406 C 116.523438 165.253906 116.542969 165.566406 116.601562 165.871094 C 116.660156 166.179688 116.75 166.480469 116.875 166.765625 C 117.003906 167.050781 117.160156 167.320312 117.347656 167.570312 C 117.535156 167.820312 117.75 168.046875 117.992188 168.246094 C 118.234375 168.449219 118.496094 168.617188 118.773438 168.757812 C 119.054688 168.898438 119.347656 169.003906 119.652344 169.074219 C 119.957031 169.148438 120.269531 169.183594 120.582031 169.183594 C 120.894531 169.183594 121.203125 169.148438 121.507812 169.078125 C 121.816406 169.003906 122.109375 168.898438 122.390625 168.761719 C 122.671875 168.621094 122.929688 168.449219 123.171875 168.25 C 123.414062 168.050781 123.628906 167.824219 123.816406 167.574219 C 124.007812 167.324219 124.164062 167.054688 124.292969 166.769531 C 124.417969 166.480469 124.511719 166.183594 124.566406 165.875 C 124.625 165.566406 124.644531 165.253906 124.632812 164.941406 C 124.617188 164.628906 124.566406 164.320312 124.480469 164.019531 Z M 124.480469 164.019531 " fill-opacity="1" fill-rule="nonzero"/><path fill="#00bf63" d="M 112.6875 170.65625 L 77.511719 194.957031 L 77.242188 195.148438 L 41.789062 170.65625 L 43.441406 156.878906 L 44.316406 149.589844 L 77.511719 160.578125 L 110.175781 149.765625 L 111.898438 164.097656 Z M 112.6875 170.65625 " fill-opacity="1" fill-rule="nonzero"/><path fill="#00bf63" d="M 71.355469 121.109375 L 72.804688 120.757812 L 72.75 120.488281 C 70.910156 110.851562 69.003906 101.230469 66.914062 91.640625 C 68.230469 101.367188 69.730469 111.058594 71.296875 120.742188 C 71.328125 120.867188 71.328125 120.988281 71.355469 121.109375 Z M 71.355469 121.109375 " fill-opacity="1" fill-rule="nonzero"/><path fill="#00bf63" d="M 82.933594 120.972656 C 82.933594 120.894531 82.957031 120.8125 82.96875 120.734375 C 84.539062 111.050781 86.035156 101.355469 87.347656 91.628906 C 85.257812 101.222656 83.351562 110.84375 81.511719 120.476562 C 81.511719 120.523438 81.496094 120.574219 81.484375 120.621094 Z M 82.933594 120.972656 " fill-opacity="1" fill-rule="nonzero"/><path fill="#00bf63" d="M 41.347656 128.332031 C 36.3125 125.566406 31.253906 122.84375 26.171875 120.167969 C 30.726562 123.046875 35.3125 125.882812 39.921875 128.675781 Z M 41.347656 128.332031 " fill-opacity="1" fill-rule="nonzero"/><path fill="#00bf63" d="M 86.4375 121.824219 L 87.886719 122.175781 C 91.109375 112.917969 94.265625 103.636719 97.246094 94.292969 C 93.546875 103.375 89.992188 112.519531 86.5 121.691406 C 86.480469 121.734375 86.464844 121.78125 86.4375 121.824219 Z M 86.4375 121.824219 " fill-opacity="1" fill-rule="nonzero"/><path fill="#00bf63" d="M 57.03125 124.558594 C 51.195312 117.8125 45.3125 111.113281 39.308594 104.511719 C 44.640625 111.390625 50.058594 118.171875 55.535156 124.914062 Z M 57.03125 124.558594 " fill-opacity="1" fill-rule="nonzero"/><path fill="#00bf63" d="M 50.238281 126.191406 C 44.226562 121.332031 38.164062 116.519531 32.054688 111.765625 C 37.550781 116.765625 43.105469 121.695312 48.714844 126.558594 Z M 50.238281 126.191406 " fill-opacity="1" fill-rule="nonzero"/><path fill="#00bf63" d="M 62.734375 123.1875 C 57.820312 114.949219 52.847656 106.742188 47.71875 98.628906 C 52.113281 107 56.664062 115.289062 61.269531 123.539062 Z M 62.734375 123.1875 " fill-opacity="1" fill-rule="nonzero"/><path fill="#00bf63" d="M 66.414062 122.300781 L 67.859375 121.949219 L 67.761719 121.691406 C 64.277344 112.519531 60.730469 103.375 57.007812 94.308594 C 59.992188 103.660156 63.152344 112.945312 66.375 122.207031 Z M 66.414062 122.300781 " fill-opacity="1" fill-rule="nonzero"/><path fill="#00bf63" d="M 131.429688 149.75 C 132.945312 149.699219 134.460938 149.652344 135.976562 149.589844 C 134.40625 149.527344 132.835938 149.476562 131.265625 149.421875 C 131.324219 149.527344 131.375 149.640625 131.429688 149.75 Z M 131.429688 149.75 " fill-opacity="1" fill-rule="nonzero"/><path fill="#00bf63" d="M 130.644531 140.320312 C 132.125 140.003906 133.609375 139.695312 135.089844 139.371094 C 133.609375 139.570312 132.125 139.78125 130.644531 139.992188 Z M 130.644531 140.320312 " fill-opacity="1" fill-rule="nonzero"/><path fill="#00bf63" d="M 127.113281 131.617188 C 128.890625 130.902344 130.664062 130.183594 132.429688 129.464844 C 130.398438 130.109375 128.371094 130.769531 126.351562 131.433594 Z M 127.113281 131.617188 " fill-opacity="1" fill-rule="nonzero"/><path fill="#00bf63" d="M 132.628906 159.464844 C 133.449219 159.578125 134.265625 159.695312 135.082031 159.804688 C 134.246094 159.625 133.410156 159.449219 132.574219 159.273438 Z M 132.628906 159.464844 " fill-opacity="1" fill-rule="nonzero"/><path fill="#00bf63" d="M 114.503906 128.582031 C 119.046875 125.816406 123.578125 123.011719 128.09375 120.167969 C 123.058594 122.808594 118.054688 125.5 113.082031 128.238281 Z M 114.503906 128.582031 " fill-opacity="1" fill-rule="nonzero"/><path fill="#00bf63" d="M 93.074219 123.421875 C 97.65625 115.207031 102.179688 106.960938 106.554688 98.628906 C 101.449219 106.703125 96.484375 114.871094 91.605469 123.066406 Z M 93.074219 123.421875 " fill-opacity="1" fill-rule="nonzero"/><path fill="#00bf63" d="M 98.820312 124.804688 C 104.269531 118.097656 109.667969 111.351562 114.957031 104.511719 C 108.980469 111.074219 103.132812 117.742188 97.324219 124.445312 Z M 98.820312 124.804688 " fill-opacity="1" fill-rule="nonzero"/><path fill="#00bf63" d="M 105.671875 126.453125 C 111.230469 121.613281 116.742188 116.71875 122.210938 111.765625 C 116.128906 116.46875 110.105469 121.242188 104.136719 126.089844 Z M 105.671875 126.453125 " fill-opacity="1" fill-rule="nonzero"/><path fill="#00bf63" d="M 28.148438 131.511719 C 26.046875 130.820312 23.941406 130.140625 21.835938 129.464844 C 23.671875 130.214844 25.515625 130.960938 27.363281 131.699219 Z M 28.148438 131.511719 " fill-opacity="1" fill-rule="nonzero"/><path fill="#00bf63" d="M 38.199219 155.882812 C 31.851562 157.132812 25.507812 158.429688 19.183594 159.804688 C 25.488281 158.953125 31.78125 158.03125 38.058594 157.042969 Z M 38.199219 155.882812 " fill-opacity="1" fill-rule="nonzero"/><path fill="#00bf63" d="M 38.964844 149.507812 L 37.519531 149.03125 C 31.105469 149.160156 24.699219 149.328125 18.289062 149.589844 C 25.152344 149.863281 32.019531 150.042969 38.882812 150.179688 Z M 38.964844 149.507812 " fill-opacity="1" fill-rule="nonzero"/><path fill="#7ed957" d="M 74.511719 236.050781 C 60.089844 220.382812 38.914062 214.164062 27.367188 211.832031 C 22.445312 210.839844 19.117188 207.917969 19.117188 204.632812 L 19.117188 193.777344 C 19.117188 193.777344 64.539062 207.660156 74.511719 236.050781 Z M 74.511719 236.050781 " fill-opacity="1" fill-rule="nonzero"/><g clip-path="url(#76134da291)"><path fill="#7ed957" d="M 74.511719 246.34375 C 66.648438 237.792969 55.46875 233.878906 48.195312 232.144531 C 43.800781 231.097656 40.867188 228.4375 40.867188 225.445312 L 40.867188 220.664062 C 40.867188 220.664062 68.457031 229.109375 74.511719 246.34375 Z M 74.511719 246.34375 " fill-opacity="1" fill-rule="nonzero"/></g><g clip-path="url(#cfaac25ddb)"><path fill="#7ed957" d="M 74.632812 224.070312 C 59.914062 203.628906 35.421875 193.851562 21.898438 189.816406 L 21.808594 189.792969 C 17.703125 188.539062 15.039062 185.398438 15.039062 181.941406 L 15.039062 167.128906 C 15.039062 167.128906 67.476562 188.722656 74.632812 224.070312 Z M 74.632812 224.070312 " fill-opacity="1" fill-rule="nonzero"/></g><path fill="#7ed957" d="M 135.355469 193.777344 C 135.355469 193.777344 89.933594 207.65625 79.953125 236.050781 C 94.378906 220.378906 115.554688 214.164062 127.101562 211.832031 C 132.019531 210.839844 135.351562 207.921875 135.351562 204.632812 Z M 135.355469 193.777344 " fill-opacity="1" fill-rule="nonzero"/><g clip-path="url(#d7136b4c8d)"><path fill="#7ed957" d="M 113.605469 220.667969 C 113.605469 220.667969 86.015625 229.109375 79.957031 246.34375 C 87.828125 237.792969 99 233.878906 106.277344 232.144531 C 110.671875 231.097656 113.605469 228.4375 113.605469 225.445312 Z M 113.605469 220.667969 " fill-opacity="1" fill-rule="nonzero"/></g><g clip-path="url(#9f6ce3d4da)"><path fill="#7ed957" d="M 139.433594 167.132812 L 139.433594 181.945312 C 139.433594 185.402344 136.765625 188.542969 132.671875 189.785156 L 132.582031 189.8125 C 119.050781 193.851562 94.554688 203.609375 79.839844 224.070312 C 86.992188 188.722656 139.433594 167.132812 139.433594 167.132812 Z M 139.433594 167.132812 " fill-opacity="1" fill-rule="nonzero"/></g><g clip-path="url(#40a62aebbb)"><path fill="#00bf63" d="M 77.929688 117.058594 L 77.929688 116.1875 C 77.765625 105.933594 77.550781 95.679688 77.132812 85.421875 C 76.707031 96.015625 76.484375 106.609375 76.332031 117.203125 L 77.929688 117.203125 Z M 77.929688 117.058594 " fill-opacity="1" fill-rule="nonzero"/></g><g clip-path="url(#85e4d89457)"><g mask="url(#8b2e40c939)"><g transform="matrix(1, 0, 0, 1, 15, 166)"><g clip-path="url(#eab8816144)"><g clip-path="url(#ba55e75057)"><path fill="#000000" d="M 59.632812 58.070312 C 45.035156 23.007812 10.429688 14.261719 0.0390625 12.386719 L 0.0390625 1.128906 C 0.0390625 1.128906 52.476562 22.722656 59.632812 58.070312 Z M 59.632812 58.070312 " fill-opacity="1" fill-rule="nonzero"/></g></g></g></g></g><g mask="url(#84c30e9152)"><g transform="matrix(1, 0, 0, 1, 18, 193)"><g clip-path="url(#51ba1c77d5)"><g clip-path="url(#5a940cc2ec)"><path fill="#000000" d="M 56.511719 43.050781 C 41.085938 15.40625 11.183594 9.773438 1.109375 8.652344 L 1.109375 0.777344 C 1.109375 0.777344 46.539062 14.660156 56.511719 43.050781 Z M 56.511719 43.050781 " fill-opacity="1" fill-rule="nonzero"/></g></g></g></g><g clip-path="url(#eadf72f8d7)"><g mask="url(#0bf3e7e54b)"><g transform="matrix(1, 0, 0, 1, 40, 220)"><g clip-path="url(#a741c2126b)"><g clip-path="url(#d830c19ad9)"><path fill="#000000" d="M 34.511719 26.34375 C 26.449219 12.050781 8.960938 6.636719 0.867188 4.84375 L 0.867188 0.664062 C 0.867188 0.664062 28.457031 9.109375 34.511719 26.34375 Z M 34.511719 26.34375 " fill-opacity="1" fill-rule="nonzero"/></g></g></g></g></g><g clip-path="url(#4f96cffedc)"><g mask="url(#b6b3d82abb)"><g transform="matrix(1, 0, 0, 1, 79, 166)"><g clip-path="url(#8ac0f1c6ac)"><g clip-path="url(#34dbfcd7d2)"><path fill="#000000" d="M 0.839844 58.070312 C 15.4375 23.007812 50.039062 14.261719 60.433594 12.386719 L 60.433594 1.128906 C 60.433594 1.128906 7.992188 22.722656 0.839844 58.070312 Z M 0.839844 58.070312 " fill-opacity="1" fill-rule="nonzero"/></g></g></g></g></g><g mask="url(#d8c76619f3)"><g transform="matrix(1, 0, 0, 1, 79, 193)"><g clip-path="url(#07ab674295)"><g clip-path="url(#c86285a11b)"><path fill="#000000" d="M 0.957031 43.050781 C 16.382812 15.40625 46.285156 9.773438 56.359375 8.652344 L 56.359375 0.777344 C 56.359375 0.777344 10.933594 14.660156 0.957031 43.050781 Z M 0.957031 43.050781 " fill-opacity="1" fill-rule="nonzero"/></g></g></g></g><g clip-path="url(#b84481859c)"><g mask="url(#b542912c2d)"><g transform="matrix(1, 0, 0, 1, 79, 220)"><g clip-path="url(#72477280db)"><g clip-path="url(#a3ee170c99)"><path fill="#000000" d="M 0.957031 26.34375 C 9.019531 12.050781 26.511719 6.636719 34.601562 4.84375 L 34.601562 0.664062 C 34.601562 0.664062 7.015625 9.109375 0.957031 26.34375 Z M 0.957031 26.34375 " fill-opacity="1" fill-rule="nonzero"/></g></g></g></g></g><g mask="url(#e1725cfc50)"><g transform="matrix(1, 0, 0, 1, 21, 124)"><g clip-path="url(#47d72225d1)"><g clip-path="url(#99bce65e38)"><path fill="#000000" d="M 49.160156 14.375 C 49.160156 16.523438 52.453125 18.261719 56.511719 18.261719 L 56.511719 32.738281 L 1.042969 14.367188 L 56.511719 1.015625 L 56.511719 10.496094 C 52.453125 10.488281 49.160156 12.226562 49.160156 14.375 Z M 49.160156 14.375 " fill-opacity="1" fill-rule="nonzero"/></g></g></g></g><g mask="url(#7d28eb9d7a)"><g transform="matrix(1, 0, 0, 1, 41, 149)"><g clip-path="url(#9c00b78489)"><g clip-path="url(#4cf478519c)"><path fill="#000000" d="M 3.316406 0.589844 L 36.511719 11.578125 L 36.511719 45.957031 L 36.242188 46.148438 L 0.789062 21.65625 L 2.441406 7.878906 Z M 3.316406 0.589844 " fill-opacity="1" fill-rule="nonzero"/></g></g></g></g><g fill="#00bf63" fill-opacity="1"><g transform="translate(170.619222, 174.132176)"><g><path d="M 15.640625 -26.9375 L 26.515625 0 L 19.921875 0 L 17.921875 -5.390625 L 7.671875 -5.390625 L 5.6875 0 L -0.921875 0 L 9.953125 -26.9375 Z M 15.84375 -10.78125 L 12.828125 -18.609375 L 12.765625 -18.609375 L 9.765625 -10.78125 Z M 15.84375 -10.78125 "/></g></g></g><g fill="#00bf63" fill-opacity="1"><g transform="translate(200.96117, 174.132176)"><g><path d="M 8.09375 -26.9375 L 8.09375 -5.390625 L 17.375 -5.390625 L 17.375 0 L 1.953125 0 L 1.953125 -26.9375 Z M 8.09375 -26.9375 "/></g></g></g><g fill="#00bf63" fill-opacity="1"><g transform="translate(224.150538, 174.132176)"><g><path d="M 22.65625 -26.9375 L 22.65625 -9.5625 C 22.65625 -6.257812 21.765625 -3.757812 19.984375 -2.0625 C 18.203125 -0.363281 15.585938 0.484375 12.140625 0.484375 C 8.703125 0.484375 6.085938 -0.363281 4.296875 -2.0625 C 2.515625 -3.757812 1.625 -6.257812 1.625 -9.5625 L 1.625 -26.9375 L 7.765625 -26.9375 L 7.765625 -11.359375 C 7.765625 -9.179688 8.109375 -7.664062 8.796875 -6.8125 C 9.484375 -5.96875 10.597656 -5.546875 12.140625 -5.546875 C 13.691406 -5.546875 14.8125 -5.96875 15.5 -6.8125 C 16.1875 -7.664062 16.53125 -9.179688 16.53125 -11.359375 L 16.53125 -26.9375 Z M 22.65625 -26.9375 "/></g></g></g><g fill="#00bf63" fill-opacity="1"><g transform="translate(253.186085, 174.132176)"><g><path d="M 24.234375 0 L 22.953125 -15.96875 L 22.796875 -15.96875 L 17.28125 -0.15625 L 13.625 -0.15625 L 8.09375 -15.96875 L 7.9375 -15.96875 L 6.65625 0 L 0.515625 0 L 2.9375 -26.9375 L 9.46875 -26.9375 L 15.453125 -11.390625 L 21.421875 -26.9375 L 27.953125 -26.9375 L 30.375 0 Z M 24.234375 0 "/></g></g></g><g fill="#00bf63" fill-opacity="1"><g transform="translate(288.818991, 174.132176)"><g><path d="M 8.09375 -16.71875 L 8.09375 0 L 1.953125 0 L 1.953125 -26.9375 L 8.09375 -26.9375 L 18.8125 -10.21875 L 18.875 -10.21875 L 18.875 -26.9375 L 25.015625 -26.9375 L 25.015625 0 L 18.875 0 L 8.15625 -16.71875 Z M 8.09375 -16.71875 "/></g></g></g><g fill="#00bf63" fill-opacity="1"><g transform="translate(320.532673, 174.132176)"><g><path d="M 8.09375 -26.9375 L 8.09375 0 L 1.953125 0 L 1.953125 -26.9375 Z M 8.09375 -26.9375 "/></g></g></g><g fill="#7ed957" fill-opacity="1"><g transform="translate(207.960149, 202.277176)"><g><path d="M 5.78125 -11.96875 C 6.25 -11.96875 6.691406 -11.878906 7.109375 -11.703125 C 7.523438 -11.523438 7.890625 -11.28125 8.203125 -10.96875 C 8.515625 -10.664062 8.757812 -10.3125 8.9375 -9.90625 C 9.113281 -9.5 9.203125 -9.054688 9.203125 -8.578125 C 9.203125 -8.109375 9.113281 -7.664062 8.9375 -7.25 C 8.757812 -6.832031 8.515625 -6.46875 8.203125 -6.15625 C 7.890625 -5.851562 7.523438 -5.613281 7.109375 -5.4375 C 6.691406 -5.269531 6.25 -5.1875 5.78125 -5.1875 L 2.671875 -5.171875 L 2.671875 0 L 0.90625 0 L 0.90625 -11.96875 Z M 5.78125 -6.828125 C 6.007812 -6.828125 6.226562 -6.875 6.4375 -6.96875 C 6.644531 -7.0625 6.828125 -7.1875 6.984375 -7.34375 C 7.148438 -7.5 7.273438 -7.6875 7.359375 -7.90625 C 7.453125 -8.132812 7.5 -8.367188 7.5 -8.609375 C 7.5 -8.859375 7.453125 -9.085938 7.359375 -9.296875 C 7.273438 -9.515625 7.148438 -9.707031 6.984375 -9.875 C 6.828125 -10.039062 6.644531 -10.171875 6.4375 -10.265625 C 6.226562 -10.359375 6.007812 -10.40625 5.78125 -10.40625 L 2.671875 -10.40625 L 2.671875 -6.828125 Z M 5.78125 -6.828125 "/></g></g></g><g fill="#7ed957" fill-opacity="1"><g transform="translate(222.107926, 202.277176)"><g><path d="M 6.5 -12.140625 C 7.3125 -12.140625 8.078125 -11.976562 8.796875 -11.65625 C 9.515625 -11.332031 10.140625 -10.890625 10.671875 -10.328125 C 11.210938 -9.773438 11.640625 -9.125 11.953125 -8.375 C 12.273438 -7.625 12.4375 -6.832031 12.4375 -6 C 12.4375 -5.15625 12.273438 -4.359375 11.953125 -3.609375 C 11.640625 -2.867188 11.210938 -2.21875 10.671875 -1.65625 C 10.128906 -1.101562 9.5 -0.660156 8.78125 -0.328125 C 8.0625 -0.00390625 7.296875 0.15625 6.484375 0.15625 C 5.671875 0.15625 4.90625 -0.00390625 4.1875 -0.328125 C 3.46875 -0.660156 2.835938 -1.101562 2.296875 -1.65625 C 1.765625 -2.21875 1.34375 -2.867188 1.03125 -3.609375 C 0.726562 -4.359375 0.578125 -5.15625 0.578125 -6 C 0.578125 -6.832031 0.726562 -7.625 1.03125 -8.375 C 1.34375 -9.125 1.769531 -9.773438 2.3125 -10.328125 C 2.851562 -10.890625 3.484375 -11.332031 4.203125 -11.65625 C 4.921875 -11.976562 5.6875 -12.140625 6.5 -12.140625 Z M 6.5 -1.515625 C 7.070312 -1.515625 7.609375 -1.628906 8.109375 -1.859375 C 8.617188 -2.097656 9.054688 -2.414062 9.421875 -2.8125 C 9.796875 -3.21875 10.085938 -3.691406 10.296875 -4.234375 C 10.515625 -4.785156 10.625 -5.375 10.625 -6 C 10.625 -6.613281 10.515625 -7.191406 10.296875 -7.734375 C 10.085938 -8.273438 9.796875 -8.75 9.421875 -9.15625 C 9.054688 -9.5625 8.617188 -9.878906 8.109375 -10.109375 C 7.609375 -10.335938 7.070312 -10.453125 6.5 -10.453125 C 5.925781 -10.453125 5.390625 -10.335938 4.890625 -10.109375 C 4.390625 -9.878906 3.953125 -9.5625 3.578125 -9.15625 C 3.203125 -8.75 2.90625 -8.273438 2.6875 -7.734375 C 2.46875 -7.191406 2.359375 -6.613281 2.359375 -6 C 2.359375 -5.375 2.46875 -4.785156 2.6875 -4.234375 C 2.90625 -3.691406 3.203125 -3.21875 3.578125 -2.8125 C 3.953125 -2.414062 4.390625 -2.097656 4.890625 -1.859375 C 5.390625 -1.628906 5.925781 -1.515625 6.5 -1.515625 Z M 6.5 -1.515625 "/></g></g></g><g fill="#7ed957" fill-opacity="1"><g transform="translate(239.378162, 202.277176)"><g><path d="M 10.828125 0 L 8.609375 0 L 4.84375 -5.171875 L 2.75 -5.171875 L 2.75 0 L 0.984375 0 L 0.984375 -11.96875 L 5.84375 -11.96875 C 6.3125 -11.96875 6.757812 -11.878906 7.1875 -11.703125 C 7.613281 -11.523438 7.976562 -11.28125 8.28125 -10.96875 C 8.59375 -10.664062 8.835938 -10.3125 9.015625 -9.90625 C 9.203125 -9.5 9.296875 -9.054688 9.296875 -8.578125 C 9.296875 -8.179688 9.234375 -7.804688 9.109375 -7.453125 C 8.984375 -7.109375 8.8125 -6.796875 8.59375 -6.515625 C 8.375 -6.234375 8.109375 -5.988281 7.796875 -5.78125 C 7.492188 -5.570312 7.164062 -5.421875 6.8125 -5.328125 Z M 5.84375 -6.828125 C 6.082031 -6.828125 6.304688 -6.875 6.515625 -6.96875 C 6.734375 -7.0625 6.914062 -7.1875 7.0625 -7.34375 C 7.21875 -7.5 7.335938 -7.6875 7.421875 -7.90625 C 7.515625 -8.132812 7.5625 -8.367188 7.5625 -8.609375 C 7.5625 -8.859375 7.515625 -9.085938 7.421875 -9.296875 C 7.335938 -9.515625 7.21875 -9.707031 7.0625 -9.875 C 6.914062 -10.039062 6.734375 -10.171875 6.515625 -10.265625 C 6.304688 -10.359375 6.082031 -10.40625 5.84375 -10.40625 L 2.75 -10.40625 L 2.75 -6.8125 Z M 5.84375 -6.828125 "/></g></g></g><g fill="#7ed957" fill-opacity="1"><g transform="translate(254.774923, 202.277176)"><g><path d="M 3.328125 -10.390625 L 0.078125 -10.390625 L 0.078125 -11.96875 L 8.34375 -11.96875 L 8.34375 -10.390625 L 5.078125 -10.390625 L 5.078125 0 L 3.328125 0 Z M 3.328125 -10.390625 "/></g></g></g><g fill="#7ed957" fill-opacity="1"><g transform="translate(267.910015, 202.277176)"><g><path d="M 2.109375 0 L 0.1875 0 L 5.171875 -11.96875 L 7.109375 -11.96875 L 12.09375 0 L 10.1875 0 L 8.609375 -3.75 L 3.671875 -3.75 Z M 4.34375 -5.375 L 7.9375 -5.375 L 6.140625 -9.6875 Z M 4.34375 -5.375 "/></g></g></g><g fill="#7ed957" fill-opacity="1"><g transform="translate(284.589513, 202.277176)"><g><path d="M 1 0 L 1 -11.96875 L 2.765625 -11.96875 L 2.765625 -1.640625 L 8.3125 -1.640625 L 8.3125 0 Z M 1 0 "/></g></g></g></svg>