<svg xmlns="http://www.w3.org/2000/svg" xmlns:xlink="http://www.w3.org/1999/xlink" width="500" zoomAndPan="magnify" viewBox="0 0 375 374.999991" height="500" preserveAspectRatio="xMidYMid meet" version="1.0"><defs><filter x="0%" y="0%" width="100%" height="100%" id="c14f5d0e96"><feColorMatrix values="0 0 0 0 1 0 0 0 0 1 0 0 0 0 1 0 0 0 1 0" color-interpolation-filters="sRGB"/></filter><clipPath id="e75c66a194"><path d="M 125.296875 158 L 185 158 L 185 216 L 125.296875 216 Z M 125.296875 158 " clip-rule="nonzero"/></clipPath><clipPath id="ee1eedc9e1"><path d="M 190 158 L 249.796875 158 L 249.796875 216 L 190 216 Z M 190 158 " clip-rule="nonzero"/></clipPath><clipPath id="e0091a8654"><path d="M 186 76.769531 L 189 76.769531 L 189 109 L 186 109 Z M 186 76.769531 " clip-rule="nonzero"/></clipPath><clipPath id="43b460b297"><path d="M 125.296875 158 L 186 158 L 186 216 L 125.296875 216 Z M 125.296875 158 " clip-rule="nonzero"/></clipPath><mask id="5e06aa7d64"><g filter="url(#c14f5d0e96)"><rect x="-37.5" width="450" fill="#000000" y="-37.499999" height="449.999989" fill-opacity="0.2"/></g></mask><clipPath id="ffb270ba2f"><path d="M 0.296875 0.160156 L 60 0.160156 L 60 57.519531 L 0.296875 57.519531 Z M 0.296875 0.160156 " clip-rule="nonzero"/></clipPath><clipPath id="a243d8e8b0"><rect x="0" width="61" y="0" height="58"/></clipPath><mask id="b976e6c246"><g filter="url(#c14f5d0e96)"><rect x="-37.5" width="450" fill="#000000" y="-37.499999" height="449.999989" fill-opacity="0.2"/></g></mask><clipPath id="1f44de58f3"><path d="M 0.121094 1 L 56 1 L 56 43.761719 L 0.121094 43.761719 Z M 0.121094 1 " clip-rule="nonzero"/></clipPath><clipPath id="f943aea940"><rect x="0" width="57" y="0" height="44"/></clipPath><clipPath id="20224a37e1"><path d="M 150 211 L 186 211 L 186 238.019531 L 150 238.019531 Z M 150 211 " clip-rule="nonzero"/></clipPath><mask id="8b95444981"><g filter="url(#c14f5d0e96)"><rect x="-37.5" width="450" fill="#000000" y="-37.499999" height="449.999989" fill-opacity="0.2"/></g></mask><clipPath id="0e65eecacd"><rect x="0" width="36" y="0" height="28"/></clipPath><clipPath id="a1ab081dc5"><path d="M 189 158 L 249.796875 158 L 249.796875 216 L 189 216 Z M 189 158 " clip-rule="nonzero"/></clipPath><mask id="81a0b15875"><g filter="url(#c14f5d0e96)"><rect x="-37.5" width="450" fill="#000000" y="-37.499999" height="449.999989" fill-opacity="0.2"/></g></mask><clipPath id="503613a0e5"><path d="M 1 0.160156 L 60.796875 0.160156 L 60.796875 57.519531 L 1 57.519531 Z M 1 0.160156 " clip-rule="nonzero"/></clipPath><clipPath id="afebadb6c2"><rect x="0" width="61" y="0" height="58"/></clipPath><mask id="7a4bf38f94"><g filter="url(#c14f5d0e96)"><rect x="-37.5" width="450" fill="#000000" y="-37.499999" height="449.999989" fill-opacity="0.2"/></g></mask><clipPath id="8df4eb3876"><path d="M 0.078125 1 L 56 1 L 56 43.761719 L 0.078125 43.761719 Z M 0.078125 1 " clip-rule="nonzero"/></clipPath><clipPath id="5a66828f9d"><rect x="0" width="56" y="0" height="44"/></clipPath><clipPath id="c90ac324ed"><path d="M 190 211 L 225 211 L 225 238.019531 L 190 238.019531 Z M 190 211 " clip-rule="nonzero"/></clipPath><mask id="288b5678b0"><g filter="url(#c14f5d0e96)"><rect x="-37.5" width="450" fill="#000000" y="-37.499999" height="449.999989" fill-opacity="0.2"/></g></mask><clipPath id="359479a3fe"><path d="M 0.078125 1 L 34 1 L 34 27 L 0.078125 27 Z M 0.078125 1 " clip-rule="nonzero"/></clipPath><clipPath id="1484c0f7f2"><rect x="0" width="35" y="0" height="28"/></clipPath><mask id="d0ddde5e71"><g filter="url(#c14f5d0e96)"><rect x="-37.5" width="450" fill="#000000" y="-37.499999" height="449.999989" fill-opacity="0.2"/></g></mask><clipPath id="9c0e5bd76d"><path d="M 0 0.160156 L 55.921875 0.160156 L 55.921875 32.320312 L 0 32.320312 Z M 0 0.160156 " clip-rule="nonzero"/></clipPath><clipPath id="d75422a329"><rect x="0" width="56" y="0" height="33"/></clipPath><mask id="08d98a684d"><g filter="url(#c14f5d0e96)"><rect x="-37.5" width="450" fill="#000000" y="-37.499999" height="449.999989" fill-opacity="0.2"/></g></mask><clipPath id="740a4bc930"><path d="M 1 0.640625 L 36.921875 0.640625 L 36.921875 46.960938 L 1 46.960938 Z M 1 0.640625 " clip-rule="nonzero"/></clipPath><clipPath id="83e463ac6d"><rect x="0" width="37" y="0" height="47"/></clipPath></defs><path fill="#00bf63" d="M 238.53125 131.320312 L 187.773438 148.117188 L 132.300781 129.75 L 187.773438 116.398438 L 236.757812 128.183594 L 194.507812 128.183594 C 193.363281 126.820312 190.785156 125.863281 187.773438 125.863281 C 183.710938 125.863281 180.421875 127.601562 180.421875 129.75 C 180.421875 131.898438 183.710938 133.636719 187.773438 133.636719 C 190.785156 133.636719 193.363281 132.679688 194.507812 131.3125 Z M 238.53125 131.320312 " fill-opacity="1" fill-rule="nonzero"/><path fill="#00bf63" d="M 234.738281 155.40625 L 232.152344 146.382812 C 232.523438 146.140625 232.800781 145.816406 232.988281 145.410156 C 233.175781 145.007812 233.242188 144.585938 233.191406 144.144531 C 233.136719 143.703125 232.972656 143.308594 232.699219 142.960938 C 232.421875 142.613281 232.074219 142.363281 231.65625 142.210938 L 231.65625 131.785156 L 230.03125 132.265625 L 230.03125 142.210938 C 229.613281 142.363281 229.265625 142.613281 228.988281 142.960938 C 228.714844 143.308594 228.550781 143.703125 228.496094 144.144531 C 228.445312 144.585938 228.511719 145.007812 228.699219 145.414062 C 228.886719 145.816406 229.167969 146.140625 229.539062 146.382812 L 226.953125 155.40625 C 226.863281 155.707031 226.8125 156.015625 226.800781 156.328125 C 226.785156 156.640625 226.804688 156.949219 226.863281 157.257812 C 226.917969 157.566406 227.011719 157.863281 227.136719 158.152344 C 227.261719 158.4375 227.421875 158.707031 227.609375 158.957031 C 227.796875 159.207031 228.011719 159.433594 228.253906 159.632812 C 228.492188 159.832031 228.753906 160.003906 229.035156 160.144531 C 229.316406 160.285156 229.609375 160.390625 229.914062 160.460938 C 230.21875 160.535156 230.527344 160.570312 230.839844 160.570312 C 231.15625 160.570312 231.464844 160.535156 231.769531 160.460938 C 232.074219 160.390625 232.367188 160.285156 232.648438 160.144531 C 232.929688 160.007812 233.191406 159.835938 233.433594 159.636719 C 233.675781 159.433594 233.890625 159.210938 234.078125 158.960938 C 234.269531 158.710938 234.425781 158.441406 234.550781 158.152344 C 234.679688 157.867188 234.769531 157.570312 234.828125 157.261719 C 234.886719 156.953125 234.90625 156.640625 234.890625 156.328125 C 234.878906 156.015625 234.828125 155.707031 234.738281 155.40625 Z M 234.738281 155.40625 " fill-opacity="1" fill-rule="nonzero"/><path fill="#00bf63" d="M 222.945312 162.042969 L 187.773438 186.34375 L 187.5 186.535156 L 152.050781 162.042969 L 153.699219 148.265625 L 154.578125 140.972656 L 187.773438 151.960938 L 220.4375 141.152344 L 222.15625 155.484375 Z M 222.945312 162.042969 " fill-opacity="1" fill-rule="nonzero"/><path fill="#00bf63" d="M 181.617188 112.496094 L 183.0625 112.144531 L 183.011719 111.871094 C 181.171875 102.238281 179.265625 92.617188 177.171875 83.027344 C 178.492188 92.75 179.992188 102.445312 181.558594 112.128906 C 181.585938 112.25 181.585938 112.375 181.617188 112.496094 Z M 181.617188 112.496094 " fill-opacity="1" fill-rule="nonzero"/><path fill="#00bf63" d="M 193.191406 112.359375 C 193.191406 112.277344 193.21875 112.199219 193.230469 112.117188 C 194.796875 102.4375 196.296875 92.742188 197.609375 83.015625 C 195.519531 92.605469 193.613281 102.230469 191.773438 111.863281 C 191.773438 111.910156 191.753906 111.960938 191.742188 112.007812 Z M 193.191406 112.359375 " fill-opacity="1" fill-rule="nonzero"/><path fill="#00bf63" d="M 151.609375 119.71875 C 146.574219 116.953125 141.511719 114.230469 136.429688 111.550781 C 140.988281 114.433594 145.570312 117.269531 150.183594 120.0625 Z M 151.609375 119.71875 " fill-opacity="1" fill-rule="nonzero"/><path fill="#00bf63" d="M 196.695312 113.210938 L 198.144531 113.5625 C 201.371094 104.304688 204.527344 95.023438 207.507812 85.679688 C 203.808594 94.761719 200.253906 103.90625 196.757812 113.074219 C 196.742188 113.121094 196.722656 113.167969 196.695312 113.210938 Z M 196.695312 113.210938 " fill-opacity="1" fill-rule="nonzero"/><path fill="#00bf63" d="M 167.292969 115.941406 C 161.457031 109.199219 155.574219 102.5 149.566406 95.898438 C 154.902344 102.777344 160.320312 109.558594 165.796875 116.300781 Z M 167.292969 115.941406 " fill-opacity="1" fill-rule="nonzero"/><path fill="#00bf63" d="M 160.5 117.578125 C 154.484375 112.714844 148.425781 107.90625 142.316406 103.152344 C 147.808594 108.152344 153.363281 113.082031 158.976562 117.941406 Z M 160.5 117.578125 " fill-opacity="1" fill-rule="nonzero"/><path fill="#00bf63" d="M 172.996094 114.570312 C 168.082031 106.335938 163.105469 98.128906 157.980469 90.015625 C 162.375 98.386719 166.925781 106.671875 171.53125 114.925781 Z M 172.996094 114.570312 " fill-opacity="1" fill-rule="nonzero"/><path fill="#00bf63" d="M 176.671875 113.6875 L 178.121094 113.335938 L 178.023438 113.074219 C 174.535156 103.90625 170.992188 94.761719 167.265625 85.695312 C 170.253906 95.046875 173.414062 104.328125 176.636719 113.59375 Z M 176.671875 113.6875 " fill-opacity="1" fill-rule="nonzero"/><path fill="#00bf63" d="M 241.691406 141.136719 C 243.207031 141.085938 244.722656 141.035156 246.238281 140.972656 C 244.667969 140.914062 243.09375 140.863281 241.523438 140.808594 C 241.582031 140.914062 241.636719 141.027344 241.691406 141.136719 Z M 241.691406 141.136719 " fill-opacity="1" fill-rule="nonzero"/><path fill="#00bf63" d="M 240.90625 131.703125 C 242.386719 131.390625 243.867188 131.078125 245.347656 130.757812 C 243.867188 130.957031 242.386719 131.167969 240.90625 131.378906 Z M 240.90625 131.703125 " fill-opacity="1" fill-rule="nonzero"/><path fill="#00bf63" d="M 237.375 123.003906 C 239.152344 122.289062 240.921875 121.570312 242.6875 120.847656 C 240.660156 121.496094 238.632812 122.152344 236.613281 122.820312 Z M 237.375 123.003906 " fill-opacity="1" fill-rule="nonzero"/><path fill="#00bf63" d="M 242.886719 150.851562 C 243.707031 150.964844 244.527344 151.082031 245.34375 151.191406 C 244.507812 151.011719 243.667969 150.835938 242.835938 150.660156 Z M 242.886719 150.851562 " fill-opacity="1" fill-rule="nonzero"/><path fill="#00bf63" d="M 224.765625 119.964844 C 229.308594 117.203125 233.835938 114.398438 238.355469 111.550781 C 233.320312 114.195312 228.316406 116.886719 223.34375 119.625 Z M 224.765625 119.964844 " fill-opacity="1" fill-rule="nonzero"/><path fill="#00bf63" d="M 203.332031 114.808594 C 207.917969 106.59375 212.441406 98.347656 216.816406 90.015625 C 211.707031 98.089844 206.742188 106.253906 201.863281 114.453125 Z M 203.332031 114.808594 " fill-opacity="1" fill-rule="nonzero"/><path fill="#00bf63" d="M 209.082031 116.191406 C 214.527344 109.484375 219.929688 102.738281 225.21875 95.898438 C 219.242188 102.460938 213.390625 109.125 207.585938 115.832031 Z M 209.082031 116.191406 " fill-opacity="1" fill-rule="nonzero"/><path fill="#00bf63" d="M 215.933594 117.839844 C 221.492188 113 227.003906 108.105469 232.472656 103.152344 C 226.390625 107.851562 220.367188 112.628906 214.398438 117.476562 Z M 215.933594 117.839844 " fill-opacity="1" fill-rule="nonzero"/><path fill="#00bf63" d="M 138.40625 122.898438 C 136.304688 122.207031 134.203125 121.523438 132.097656 120.847656 C 133.933594 121.601562 135.777344 122.347656 137.621094 123.085938 Z M 138.40625 122.898438 " fill-opacity="1" fill-rule="nonzero"/><path fill="#00bf63" d="M 148.460938 147.269531 C 142.109375 148.519531 135.769531 149.816406 129.441406 151.191406 C 135.746094 150.339844 142.039062 149.417969 148.320312 148.429688 Z M 148.460938 147.269531 " fill-opacity="1" fill-rule="nonzero"/><path fill="#00bf63" d="M 149.222656 140.894531 L 147.777344 140.417969 C 141.367188 140.546875 134.960938 140.714844 128.546875 140.972656 C 135.414062 141.25 142.28125 141.429688 149.144531 141.566406 Z M 149.222656 140.894531 " fill-opacity="1" fill-rule="nonzero"/><path fill="#7ed957" d="M 184.773438 227.4375 C 170.351562 211.769531 149.171875 205.550781 137.628906 203.21875 C 132.703125 202.226562 129.378906 199.304688 129.378906 196.015625 L 129.378906 185.160156 C 129.378906 185.160156 174.800781 199.042969 184.773438 227.4375 Z M 184.773438 227.4375 " fill-opacity="1" fill-rule="nonzero"/><path fill="#7ed957" d="M 184.773438 237.726562 C 176.90625 229.179688 165.730469 225.265625 158.457031 223.53125 C 154.0625 222.480469 151.128906 219.824219 151.128906 216.832031 L 151.128906 212.050781 C 151.128906 212.050781 178.71875 220.496094 184.773438 237.726562 Z M 184.773438 237.726562 " fill-opacity="1" fill-rule="nonzero"/><g clip-path="url(#e75c66a194)"><path fill="#7ed957" d="M 184.894531 215.457031 C 170.175781 195.015625 145.683594 185.238281 132.160156 181.203125 L 132.070312 181.179688 C 127.964844 179.925781 125.296875 176.785156 125.296875 173.328125 L 125.296875 158.515625 C 125.296875 158.515625 177.738281 180.109375 184.894531 215.457031 Z M 184.894531 215.457031 " fill-opacity="1" fill-rule="nonzero"/></g><path fill="#7ed957" d="M 245.617188 185.160156 C 245.617188 185.160156 200.191406 199.042969 190.214844 227.4375 C 204.640625 211.765625 225.816406 205.550781 237.363281 203.21875 C 242.28125 202.226562 245.613281 199.308594 245.613281 196.015625 Z M 245.617188 185.160156 " fill-opacity="1" fill-rule="nonzero"/><path fill="#7ed957" d="M 223.863281 212.054688 C 223.863281 212.054688 196.277344 220.496094 190.21875 237.726562 C 198.085938 229.179688 209.261719 225.265625 216.539062 223.53125 C 220.929688 222.480469 223.863281 219.820312 223.863281 216.832031 Z M 223.863281 212.054688 " fill-opacity="1" fill-rule="nonzero"/><g clip-path="url(#ee1eedc9e1)"><path fill="#7ed957" d="M 249.691406 158.519531 L 249.691406 173.332031 C 249.691406 176.785156 247.027344 179.925781 242.933594 181.171875 L 242.84375 181.199219 C 229.308594 185.238281 204.816406 194.996094 190.097656 215.457031 C 197.25 180.109375 249.691406 158.519531 249.691406 158.519531 Z M 249.691406 158.519531 " fill-opacity="1" fill-rule="nonzero"/></g><g clip-path="url(#e0091a8654)"><path fill="#00bf63" d="M 188.1875 108.445312 L 188.1875 107.574219 C 188.027344 97.320312 187.808594 87.0625 187.390625 76.808594 C 186.96875 87.402344 186.746094 97.996094 186.589844 108.589844 L 188.1875 108.589844 Z M 188.1875 108.445312 " fill-opacity="1" fill-rule="nonzero"/></g><g clip-path="url(#43b460b297)"><g mask="url(#5e06aa7d64)"><g transform="matrix(1, 0, 0, 1, 125, 158)"><g clip-path="url(#a243d8e8b0)"><g clip-path="url(#ffb270ba2f)"><path fill="#000000" d="M 59.894531 57.457031 C 45.292969 22.394531 10.691406 13.648438 0.296875 11.773438 L 0.296875 0.515625 C 0.296875 0.515625 52.738281 22.109375 59.894531 57.457031 Z M 59.894531 57.457031 " fill-opacity="1" fill-rule="nonzero"/></g></g></g></g></g><g mask="url(#b976e6c246)"><g transform="matrix(1, 0, 0, 1, 129, 184)"><g clip-path="url(#f943aea940)"><g clip-path="url(#1f44de58f3)"><path fill="#000000" d="M 55.773438 43.4375 C 40.347656 15.792969 10.445312 10.160156 0.371094 9.035156 L 0.371094 1.160156 C 0.371094 1.160156 45.800781 15.042969 55.773438 43.4375 Z M 55.773438 43.4375 " fill-opacity="1" fill-rule="nonzero"/></g></g></g></g><g clip-path="url(#20224a37e1)"><g mask="url(#8b95444981)"><g transform="matrix(1, 0, 0, 1, 150, 211)"><g clip-path="url(#0e65eecacd)"><path fill="#000000" d="M 34.773438 26.726562 C 26.710938 12.4375 9.21875 7.023438 1.128906 5.230469 L 1.128906 1.050781 C 1.128906 1.050781 28.71875 9.496094 34.773438 26.726562 Z M 34.773438 26.726562 " fill-opacity="1" fill-rule="nonzero"/></g></g></g></g><g clip-path="url(#a1ab081dc5)"><g mask="url(#81a0b15875)"><g transform="matrix(1, 0, 0, 1, 189, 158)"><g clip-path="url(#afebadb6c2)"><g clip-path="url(#503613a0e5)"><path fill="#000000" d="M 1.097656 57.457031 C 15.695312 22.394531 50.300781 13.648438 60.691406 11.773438 L 60.691406 0.515625 C 60.691406 0.515625 8.25 22.109375 1.097656 57.457031 Z M 1.097656 57.457031 " fill-opacity="1" fill-rule="nonzero"/></g></g></g></g></g><g mask="url(#7a4bf38f94)"><g transform="matrix(1, 0, 0, 1, 190, 184)"><g clip-path="url(#5a66828f9d)"><g clip-path="url(#8df4eb3876)"><path fill="#000000" d="M 0.21875 43.4375 C 15.644531 15.792969 45.546875 10.160156 55.617188 9.035156 L 55.617188 1.160156 C 55.617188 1.160156 10.191406 15.042969 0.21875 43.4375 Z M 0.21875 43.4375 " fill-opacity="1" fill-rule="nonzero"/></g></g></g></g><g clip-path="url(#c90ac324ed)"><g mask="url(#288b5678b0)"><g transform="matrix(1, 0, 0, 1, 190, 211)"><g clip-path="url(#1484c0f7f2)"><g clip-path="url(#359479a3fe)"><path fill="#000000" d="M 0.21875 26.726562 C 8.277344 12.4375 25.773438 7.023438 33.863281 5.230469 L 33.863281 1.050781 C 33.863281 1.050781 6.277344 9.496094 0.21875 26.726562 Z M 0.21875 26.726562 " fill-opacity="1" fill-rule="nonzero"/></g></g></g></g></g><g mask="url(#d0ddde5e71)"><g transform="matrix(1, 0, 0, 1, 132, 116)"><g clip-path="url(#d75422a329)"><g clip-path="url(#9c0e5bd76d)"><path fill="#000000" d="M 48.421875 13.761719 C 48.421875 15.910156 51.710938 17.648438 55.773438 17.648438 L 55.773438 32.125 L 0.300781 13.753906 L 55.773438 0.402344 L 55.773438 9.882812 C 51.710938 9.875 48.421875 11.613281 48.421875 13.761719 Z M 48.421875 13.761719 " fill-opacity="1" fill-rule="nonzero"/></g></g></g></g><g mask="url(#08d98a684d)"><g transform="matrix(1, 0, 0, 1, 151, 140)"><g clip-path="url(#83e463ac6d)"><g clip-path="url(#740a4bc930)"><path fill="#000000" d="M 3.578125 0.972656 L 36.773438 11.960938 L 36.773438 46.34375 L 36.5 46.535156 L 1.050781 22.042969 L 2.699219 8.265625 Z M 3.578125 0.972656 " fill-opacity="1" fill-rule="nonzero"/></g></g></g></g></svg>