<svg xmlns="http://www.w3.org/2000/svg" xmlns:xlink="http://www.w3.org/1999/xlink" width="500" zoomAndPan="magnify" viewBox="0 0 375 374.999991" height="500" preserveAspectRatio="xMidYMid meet" version="1.0"><defs><filter x="0%" y="0%" width="100%" height="100%" id="e9fb3e395c"><feColorMatrix values="0 0 0 0 1 0 0 0 0 1 0 0 0 0 1 0 0 0 1 0" color-interpolation-filters="sRGB"/></filter><g/><clipPath id="d5c585f289"><path d="M 125.296875 158 L 185 158 L 185 216 L 125.296875 216 Z M 125.296875 158 " clip-rule="nonzero"/></clipPath><clipPath id="55d28a6d99"><path d="M 190 158 L 249.796875 158 L 249.796875 216 L 190 216 Z M 190 158 " clip-rule="nonzero"/></clipPath><clipPath id="75e90e4b5b"><path d="M 186 76.769531 L 189 76.769531 L 189 109 L 186 109 Z M 186 76.769531 " clip-rule="nonzero"/></clipPath><clipPath id="863155f1ea"><path d="M 125.296875 158 L 186 158 L 186 216 L 125.296875 216 Z M 125.296875 158 " clip-rule="nonzero"/></clipPath><mask id="64aba26a7f"><g filter="url(#e9fb3e395c)"><rect x="-37.5" width="450" fill="#000000" y="-37.499999" height="449.999989" fill-opacity="0.2"/></g></mask><clipPath id="fb981e1785"><path d="M 0.296875 0.160156 L 60 0.160156 L 60 57.519531 L 0.296875 57.519531 Z M 0.296875 0.160156 " clip-rule="nonzero"/></clipPath><clipPath id="e252d174c5"><rect x="0" width="61" y="0" height="58"/></clipPath><mask id="b624111743"><g filter="url(#e9fb3e395c)"><rect x="-37.5" width="450" fill="#000000" y="-37.499999" height="449.999989" fill-opacity="0.2"/></g></mask><clipPath id="559b748b4a"><path d="M 0.121094 1 L 56 1 L 56 43.761719 L 0.121094 43.761719 Z M 0.121094 1 " clip-rule="nonzero"/></clipPath><clipPath id="c0a3328ef1"><rect x="0" width="57" y="0" height="44"/></clipPath><clipPath id="98c878f792"><path d="M 150 211 L 186 211 L 186 238.019531 L 150 238.019531 Z M 150 211 " clip-rule="nonzero"/></clipPath><mask id="f5a7707f26"><g filter="url(#e9fb3e395c)"><rect x="-37.5" width="450" fill="#000000" y="-37.499999" height="449.999989" fill-opacity="0.2"/></g></mask><clipPath id="0e7fa2db02"><rect x="0" width="36" y="0" height="28"/></clipPath><clipPath id="39d2361957"><path d="M 189 158 L 249.796875 158 L 249.796875 216 L 189 216 Z M 189 158 " clip-rule="nonzero"/></clipPath><mask id="b0915ef08d"><g filter="url(#e9fb3e395c)"><rect x="-37.5" width="450" fill="#000000" y="-37.499999" height="449.999989" fill-opacity="0.2"/></g></mask><clipPath id="0de6662c1b"><path d="M 1 0.160156 L 60.796875 0.160156 L 60.796875 57.519531 L 1 57.519531 Z M 1 0.160156 " clip-rule="nonzero"/></clipPath><clipPath id="542a0975a8"><rect x="0" width="61" y="0" height="58"/></clipPath><mask id="af08d7781f"><g filter="url(#e9fb3e395c)"><rect x="-37.5" width="450" fill="#000000" y="-37.499999" height="449.999989" fill-opacity="0.2"/></g></mask><clipPath id="6141116150"><path d="M 0.078125 1 L 56 1 L 56 43.761719 L 0.078125 43.761719 Z M 0.078125 1 " clip-rule="nonzero"/></clipPath><clipPath id="4d0d99d1f1"><rect x="0" width="56" y="0" height="44"/></clipPath><clipPath id="f5e6f2c4eb"><path d="M 190 211 L 225 211 L 225 238.019531 L 190 238.019531 Z M 190 211 " clip-rule="nonzero"/></clipPath><mask id="e669a3146a"><g filter="url(#e9fb3e395c)"><rect x="-37.5" width="450" fill="#000000" y="-37.499999" height="449.999989" fill-opacity="0.2"/></g></mask><clipPath id="835c117d2d"><path d="M 0.078125 1 L 34 1 L 34 27 L 0.078125 27 Z M 0.078125 1 " clip-rule="nonzero"/></clipPath><clipPath id="39a77db3ff"><rect x="0" width="35" y="0" height="28"/></clipPath><mask id="e9926d7f53"><g filter="url(#e9fb3e395c)"><rect x="-37.5" width="450" fill="#000000" y="-37.499999" height="449.999989" fill-opacity="0.2"/></g></mask><clipPath id="8689f7f002"><path d="M 0 0.160156 L 55.921875 0.160156 L 55.921875 32.320312 L 0 32.320312 Z M 0 0.160156 " clip-rule="nonzero"/></clipPath><clipPath id="3039a3443c"><rect x="0" width="56" y="0" height="33"/></clipPath><mask id="04b7bb3e90"><g filter="url(#e9fb3e395c)"><rect x="-37.5" width="450" fill="#000000" y="-37.499999" height="449.999989" fill-opacity="0.2"/></g></mask><clipPath id="b5b4a51a30"><path d="M 1 0.640625 L 36.921875 0.640625 L 36.921875 46.960938 L 1 46.960938 Z M 1 0.640625 " clip-rule="nonzero"/></clipPath><clipPath id="8d02ae5381"><rect x="0" width="37" y="0" height="47"/></clipPath></defs><path fill="#00bf63" d="M 238.53125 131.320312 L 187.773438 148.117188 L 132.300781 129.75 L 187.773438 116.398438 L 236.757812 128.183594 L 194.507812 128.183594 C 193.363281 126.820312 190.785156 125.863281 187.773438 125.863281 C 183.710938 125.863281 180.421875 127.601562 180.421875 129.75 C 180.421875 131.898438 183.710938 133.636719 187.773438 133.636719 C 190.785156 133.636719 193.363281 132.679688 194.507812 131.3125 Z M 238.53125 131.320312 " fill-opacity="1" fill-rule="nonzero"/><path fill="#00bf63" d="M 234.738281 155.40625 L 232.152344 146.382812 C 232.523438 146.140625 232.800781 145.816406 232.988281 145.410156 C 233.175781 145.007812 233.242188 144.585938 233.191406 144.144531 C 233.136719 143.703125 232.972656 143.308594 232.699219 142.960938 C 232.421875 142.613281 232.074219 142.363281 231.65625 142.210938 L 231.65625 131.785156 L 230.03125 132.265625 L 230.03125 142.210938 C 229.613281 142.363281 229.265625 142.613281 228.988281 142.960938 C 228.714844 143.308594 228.550781 143.703125 228.496094 144.144531 C 228.445312 144.585938 228.511719 145.007812 228.699219 145.414062 C 228.886719 145.816406 229.167969 146.140625 229.539062 146.382812 L 226.953125 155.40625 C 226.863281 155.707031 226.8125 156.015625 226.800781 156.328125 C 226.785156 156.640625 226.804688 156.949219 226.863281 157.257812 C 226.917969 157.566406 227.011719 157.863281 227.136719 158.152344 C 227.261719 158.4375 227.421875 158.707031 227.609375 158.957031 C 227.796875 159.207031 228.011719 159.433594 228.253906 159.632812 C 228.492188 159.832031 228.753906 160.003906 229.035156 160.144531 C 229.316406 160.285156 229.609375 160.390625 229.914062 160.460938 C 230.21875 160.535156 230.527344 160.570312 230.839844 160.570312 C 231.15625 160.570312 231.464844 160.535156 231.769531 160.460938 C 232.074219 160.390625 232.367188 160.285156 232.648438 160.144531 C 232.929688 160.007812 233.191406 159.835938 233.433594 159.636719 C 233.675781 159.433594 233.890625 159.210938 234.078125 158.960938 C 234.269531 158.710938 234.425781 158.441406 234.550781 158.152344 C 234.679688 157.867188 234.769531 157.570312 234.828125 157.261719 C 234.886719 156.953125 234.90625 156.640625 234.890625 156.328125 C 234.878906 156.015625 234.828125 155.707031 234.738281 155.40625 Z M 234.738281 155.40625 " fill-opacity="1" fill-rule="nonzero"/><path fill="#00bf63" d="M 222.945312 162.042969 L 187.773438 186.34375 L 187.5 186.535156 L 152.050781 162.042969 L 153.699219 148.265625 L 154.578125 140.972656 L 187.773438 151.960938 L 220.4375 141.152344 L 222.15625 155.484375 Z M 222.945312 162.042969 " fill-opacity="1" fill-rule="nonzero"/><path fill="#00bf63" d="M 181.617188 112.496094 L 183.0625 112.144531 L 183.011719 111.871094 C 181.171875 102.238281 179.265625 92.617188 177.171875 83.027344 C 178.492188 92.75 179.992188 102.445312 181.558594 112.128906 C 181.585938 112.25 181.585938 112.375 181.617188 112.496094 Z M 181.617188 112.496094 " fill-opacity="1" fill-rule="nonzero"/><path fill="#00bf63" d="M 193.191406 112.359375 C 193.191406 112.277344 193.21875 112.199219 193.230469 112.117188 C 194.796875 102.4375 196.296875 92.742188 197.609375 83.015625 C 195.519531 92.605469 193.613281 102.230469 191.773438 111.863281 C 191.773438 111.910156 191.753906 111.960938 191.742188 112.007812 Z M 193.191406 112.359375 " fill-opacity="1" fill-rule="nonzero"/><path fill="#00bf63" d="M 151.609375 119.71875 C 146.574219 116.953125 141.511719 114.230469 136.429688 111.550781 C 140.988281 114.433594 145.570312 117.269531 150.183594 120.0625 Z M 151.609375 119.71875 " fill-opacity="1" fill-rule="nonzero"/><path fill="#00bf63" d="M 196.695312 113.210938 L 198.144531 113.5625 C 201.371094 104.304688 204.527344 95.023438 207.507812 85.679688 C 203.808594 94.761719 200.253906 103.90625 196.757812 113.074219 C 196.742188 113.121094 196.722656 113.167969 196.695312 113.210938 Z M 196.695312 113.210938 " fill-opacity="1" fill-rule="nonzero"/><path fill="#00bf63" d="M 167.292969 115.941406 C 161.457031 109.199219 155.574219 102.5 149.566406 95.898438 C 154.902344 102.777344 160.320312 109.558594 165.796875 116.300781 Z M 167.292969 115.941406 " fill-opacity="1" fill-rule="nonzero"/><path fill="#00bf63" d="M 160.5 117.578125 C 154.484375 112.714844 148.425781 107.90625 142.316406 103.152344 C 147.808594 108.152344 153.363281 113.082031 158.976562 117.941406 Z M 160.5 117.578125 " fill-opacity="1" fill-rule="nonzero"/><path fill="#00bf63" d="M 172.996094 114.570312 C 168.082031 106.335938 163.105469 98.128906 157.980469 90.015625 C 162.375 98.386719 166.925781 106.671875 171.53125 114.925781 Z M 172.996094 114.570312 " fill-opacity="1" fill-rule="nonzero"/><path fill="#00bf63" d="M 176.671875 113.6875 L 178.121094 113.335938 L 178.023438 113.074219 C 174.535156 103.90625 170.992188 94.761719 167.265625 85.695312 C 170.253906 95.046875 173.414062 104.328125 176.636719 113.59375 Z M 176.671875 113.6875 " fill-opacity="1" fill-rule="nonzero"/><path fill="#00bf63" d="M 241.691406 141.136719 C 243.207031 141.085938 244.722656 141.035156 246.238281 140.972656 C 244.667969 140.914062 243.09375 140.863281 241.523438 140.808594 C 241.582031 140.914062 241.636719 141.027344 241.691406 141.136719 Z M 241.691406 141.136719 " fill-opacity="1" fill-rule="nonzero"/><path fill="#00bf63" d="M 240.90625 131.703125 C 242.386719 131.390625 243.867188 131.078125 245.347656 130.757812 C 243.867188 130.957031 242.386719 131.167969 240.90625 131.378906 Z M 240.90625 131.703125 " fill-opacity="1" fill-rule="nonzero"/><path fill="#00bf63" d="M 237.375 123.003906 C 239.152344 122.289062 240.921875 121.570312 242.6875 120.847656 C 240.660156 121.496094 238.632812 122.152344 236.613281 122.820312 Z M 237.375 123.003906 " fill-opacity="1" fill-rule="nonzero"/><path fill="#00bf63" d="M 242.886719 150.851562 C 243.707031 150.964844 244.527344 151.082031 245.34375 151.191406 C 244.507812 151.011719 243.667969 150.835938 242.835938 150.660156 Z M 242.886719 150.851562 " fill-opacity="1" fill-rule="nonzero"/><path fill="#00bf63" d="M 224.765625 119.964844 C 229.308594 117.203125 233.835938 114.398438 238.355469 111.550781 C 233.320312 114.195312 228.316406 116.886719 223.34375 119.625 Z M 224.765625 119.964844 " fill-opacity="1" fill-rule="nonzero"/><path fill="#00bf63" d="M 203.332031 114.808594 C 207.917969 106.59375 212.441406 98.347656 216.816406 90.015625 C 211.707031 98.089844 206.742188 106.253906 201.863281 114.453125 Z M 203.332031 114.808594 " fill-opacity="1" fill-rule="nonzero"/><path fill="#00bf63" d="M 209.082031 116.191406 C 214.527344 109.484375 219.929688 102.738281 225.21875 95.898438 C 219.242188 102.460938 213.390625 109.125 207.585938 115.832031 Z M 209.082031 116.191406 " fill-opacity="1" fill-rule="nonzero"/><path fill="#00bf63" d="M 215.933594 117.839844 C 221.492188 113 227.003906 108.105469 232.472656 103.152344 C 226.390625 107.851562 220.367188 112.628906 214.398438 117.476562 Z M 215.933594 117.839844 " fill-opacity="1" fill-rule="nonzero"/><path fill="#00bf63" d="M 138.40625 122.898438 C 136.304688 122.207031 134.203125 121.523438 132.097656 120.847656 C 133.933594 121.601562 135.777344 122.347656 137.621094 123.085938 Z M 138.40625 122.898438 " fill-opacity="1" fill-rule="nonzero"/><path fill="#00bf63" d="M 148.460938 147.269531 C 142.109375 148.519531 135.769531 149.816406 129.441406 151.191406 C 135.746094 150.339844 142.039062 149.417969 148.320312 148.429688 Z M 148.460938 147.269531 " fill-opacity="1" fill-rule="nonzero"/><path fill="#00bf63" d="M 149.222656 140.894531 L 147.777344 140.417969 C 141.367188 140.546875 134.960938 140.714844 128.546875 140.972656 C 135.414062 141.25 142.28125 141.429688 149.144531 141.566406 Z M 149.222656 140.894531 " fill-opacity="1" fill-rule="nonzero"/><path fill="#7ed957" d="M 184.773438 227.4375 C 170.351562 211.769531 149.171875 205.550781 137.628906 203.21875 C 132.703125 202.226562 129.378906 199.304688 129.378906 196.015625 L 129.378906 185.160156 C 129.378906 185.160156 174.800781 199.042969 184.773438 227.4375 Z M 184.773438 227.4375 " fill-opacity="1" fill-rule="nonzero"/><path fill="#7ed957" d="M 184.773438 237.726562 C 176.90625 229.179688 165.730469 225.265625 158.457031 223.53125 C 154.0625 222.480469 151.128906 219.824219 151.128906 216.832031 L 151.128906 212.050781 C 151.128906 212.050781 178.71875 220.496094 184.773438 237.726562 Z M 184.773438 237.726562 " fill-opacity="1" fill-rule="nonzero"/><g clip-path="url(#d5c585f289)"><path fill="#7ed957" d="M 184.894531 215.457031 C 170.175781 195.015625 145.683594 185.238281 132.160156 181.203125 L 132.070312 181.179688 C 127.964844 179.925781 125.296875 176.785156 125.296875 173.328125 L 125.296875 158.515625 C 125.296875 158.515625 177.738281 180.109375 184.894531 215.457031 Z M 184.894531 215.457031 " fill-opacity="1" fill-rule="nonzero"/></g><path fill="#7ed957" d="M 245.617188 185.160156 C 245.617188 185.160156 200.191406 199.042969 190.214844 227.4375 C 204.640625 211.765625 225.816406 205.550781 237.363281 203.21875 C 242.28125 202.226562 245.613281 199.308594 245.613281 196.015625 Z M 245.617188 185.160156 " fill-opacity="1" fill-rule="nonzero"/><path fill="#7ed957" d="M 223.863281 212.054688 C 223.863281 212.054688 196.277344 220.496094 190.21875 237.726562 C 198.085938 229.179688 209.261719 225.265625 216.539062 223.53125 C 220.929688 222.480469 223.863281 219.820312 223.863281 216.832031 Z M 223.863281 212.054688 " fill-opacity="1" fill-rule="nonzero"/><g clip-path="url(#55d28a6d99)"><path fill="#7ed957" d="M 249.691406 158.519531 L 249.691406 173.332031 C 249.691406 176.785156 247.027344 179.925781 242.933594 181.171875 L 242.84375 181.199219 C 229.308594 185.238281 204.816406 194.996094 190.097656 215.457031 C 197.25 180.109375 249.691406 158.519531 249.691406 158.519531 Z M 249.691406 158.519531 " fill-opacity="1" fill-rule="nonzero"/></g><g clip-path="url(#75e90e4b5b)"><path fill="#00bf63" d="M 188.1875 108.445312 L 188.1875 107.574219 C 188.027344 97.320312 187.808594 87.0625 187.390625 76.808594 C 186.96875 87.402344 186.746094 97.996094 186.589844 108.589844 L 188.1875 108.589844 Z M 188.1875 108.445312 " fill-opacity="1" fill-rule="nonzero"/></g><g clip-path="url(#863155f1ea)"><g mask="url(#64aba26a7f)"><g transform="matrix(1, 0, 0, 1, 125, 158)"><g clip-path="url(#e252d174c5)"><g clip-path="url(#fb981e1785)"><path fill="#000000" d="M 59.894531 57.457031 C 45.292969 22.394531 10.691406 13.648438 0.296875 11.773438 L 0.296875 0.515625 C 0.296875 0.515625 52.738281 22.109375 59.894531 57.457031 Z M 59.894531 57.457031 " fill-opacity="1" fill-rule="nonzero"/></g></g></g></g></g><g mask="url(#b624111743)"><g transform="matrix(1, 0, 0, 1, 129, 184)"><g clip-path="url(#c0a3328ef1)"><g clip-path="url(#559b748b4a)"><path fill="#000000" d="M 55.773438 43.4375 C 40.347656 15.792969 10.445312 10.160156 0.371094 9.035156 L 0.371094 1.160156 C 0.371094 1.160156 45.800781 15.042969 55.773438 43.4375 Z M 55.773438 43.4375 " fill-opacity="1" fill-rule="nonzero"/></g></g></g></g><g clip-path="url(#98c878f792)"><g mask="url(#f5a7707f26)"><g transform="matrix(1, 0, 0, 1, 150, 211)"><g clip-path="url(#0e7fa2db02)"><path fill="#000000" d="M 34.773438 26.726562 C 26.710938 12.4375 9.21875 7.023438 1.128906 5.230469 L 1.128906 1.050781 C 1.128906 1.050781 28.71875 9.496094 34.773438 26.726562 Z M 34.773438 26.726562 " fill-opacity="1" fill-rule="nonzero"/></g></g></g></g><g clip-path="url(#39d2361957)"><g mask="url(#b0915ef08d)"><g transform="matrix(1, 0, 0, 1, 189, 158)"><g clip-path="url(#542a0975a8)"><g clip-path="url(#0de6662c1b)"><path fill="#000000" d="M 1.097656 57.457031 C 15.695312 22.394531 50.300781 13.648438 60.691406 11.773438 L 60.691406 0.515625 C 60.691406 0.515625 8.25 22.109375 1.097656 57.457031 Z M 1.097656 57.457031 " fill-opacity="1" fill-rule="nonzero"/></g></g></g></g></g><g mask="url(#af08d7781f)"><g transform="matrix(1, 0, 0, 1, 190, 184)"><g clip-path="url(#4d0d99d1f1)"><g clip-path="url(#6141116150)"><path fill="#000000" d="M 0.21875 43.4375 C 15.644531 15.792969 45.546875 10.160156 55.617188 9.035156 L 55.617188 1.160156 C 55.617188 1.160156 10.191406 15.042969 0.21875 43.4375 Z M 0.21875 43.4375 " fill-opacity="1" fill-rule="nonzero"/></g></g></g></g><g clip-path="url(#f5e6f2c4eb)"><g mask="url(#e669a3146a)"><g transform="matrix(1, 0, 0, 1, 190, 211)"><g clip-path="url(#39a77db3ff)"><g clip-path="url(#835c117d2d)"><path fill="#000000" d="M 0.21875 26.726562 C 8.277344 12.4375 25.773438 7.023438 33.863281 5.230469 L 33.863281 1.050781 C 33.863281 1.050781 6.277344 9.496094 0.21875 26.726562 Z M 0.21875 26.726562 " fill-opacity="1" fill-rule="nonzero"/></g></g></g></g></g><g mask="url(#e9926d7f53)"><g transform="matrix(1, 0, 0, 1, 132, 116)"><g clip-path="url(#3039a3443c)"><g clip-path="url(#8689f7f002)"><path fill="#000000" d="M 48.421875 13.761719 C 48.421875 15.910156 51.710938 17.648438 55.773438 17.648438 L 55.773438 32.125 L 0.300781 13.753906 L 55.773438 0.402344 L 55.773438 9.882812 C 51.710938 9.875 48.421875 11.613281 48.421875 13.761719 Z M 48.421875 13.761719 " fill-opacity="1" fill-rule="nonzero"/></g></g></g></g><g mask="url(#04b7bb3e90)"><g transform="matrix(1, 0, 0, 1, 151, 140)"><g clip-path="url(#8d02ae5381)"><g clip-path="url(#b5b4a51a30)"><path fill="#000000" d="M 3.578125 0.972656 L 36.773438 11.960938 L 36.773438 46.34375 L 36.5 46.535156 L 1.050781 22.042969 L 2.699219 8.265625 Z M 3.578125 0.972656 " fill-opacity="1" fill-rule="nonzero"/></g></g></g></g><g fill="#00bf63" fill-opacity="1"><g transform="translate(119.755479, 273.544019)"><g><path d="M 13.25 -22.8125 L 22.453125 0 L 16.875 0 L 15.1875 -4.5625 L 6.5 -4.5625 L 4.8125 0 L -0.78125 0 L 8.4375 -22.8125 Z M 13.40625 -9.125 L 10.875 -15.765625 L 10.8125 -15.765625 L 8.265625 -9.125 Z M 13.40625 -9.125 "/></g></g></g><g fill="#00bf63" fill-opacity="1"><g transform="translate(145.45092, 273.544019)"><g><path d="M 6.859375 -22.8125 L 6.859375 -4.5625 L 14.71875 -4.5625 L 14.71875 0 L 1.65625 0 L 1.65625 -22.8125 Z M 6.859375 -22.8125 "/></g></g></g><g fill="#00bf63" fill-opacity="1"><g transform="translate(165.089198, 273.544019)"><g><path d="M 19.1875 -22.8125 L 19.1875 -8.109375 C 19.1875 -5.304688 18.429688 -3.179688 16.921875 -1.734375 C 15.410156 -0.296875 13.195312 0.421875 10.28125 0.421875 C 7.375 0.421875 5.164062 -0.296875 3.65625 -1.734375 C 2.144531 -3.179688 1.390625 -5.304688 1.390625 -8.109375 L 1.390625 -22.8125 L 6.578125 -22.8125 L 6.578125 -9.625 C 6.578125 -7.78125 6.867188 -6.5 7.453125 -5.78125 C 8.035156 -5.0625 8.976562 -4.703125 10.28125 -4.703125 C 11.59375 -4.703125 12.539062 -5.0625 13.125 -5.78125 C 13.707031 -6.5 14 -7.78125 14 -9.625 L 14 -22.8125 Z M 19.1875 -22.8125 "/></g></g></g><g fill="#00bf63" fill-opacity="1"><g transform="translate(189.678297, 273.544019)"><g><path d="M 20.515625 0 L 19.4375 -13.53125 L 19.296875 -13.53125 L 14.625 -0.140625 L 11.53125 -0.140625 L 6.859375 -13.53125 L 6.71875 -13.53125 L 5.640625 0 L 0.4375 0 L 2.484375 -22.8125 L 8.015625 -22.8125 L 13.078125 -9.65625 L 18.140625 -22.8125 L 23.671875 -22.8125 L 25.71875 0 Z M 20.515625 0 "/></g></g></g><g fill="#00bf63" fill-opacity="1"><g transform="translate(219.854368, 273.544019)"><g><path d="M 6.859375 -14.15625 L 6.859375 0 L 1.65625 0 L 1.65625 -22.8125 L 6.859375 -22.8125 L 15.9375 -8.65625 L 15.984375 -8.65625 L 15.984375 -22.8125 L 21.1875 -22.8125 L 21.1875 0 L 15.984375 0 L 6.921875 -14.15625 Z M 6.859375 -14.15625 "/></g></g></g><g fill="#00bf63" fill-opacity="1"><g transform="translate(246.711448, 273.544019)"><g><path d="M 6.859375 -22.8125 L 6.859375 0 L 1.65625 0 L 1.65625 -22.8125 Z M 6.859375 -22.8125 "/></g></g></g><g fill="#7ed957" fill-opacity="1"><g transform="translate(144.845735, 293.331418)"><g><path d="M 5.78125 -11.96875 C 6.25 -11.96875 6.691406 -11.878906 7.109375 -11.703125 C 7.523438 -11.523438 7.890625 -11.28125 8.203125 -10.96875 C 8.515625 -10.664062 8.757812 -10.3125 8.9375 -9.90625 C 9.113281 -9.5 9.203125 -9.054688 9.203125 -8.578125 C 9.203125 -8.109375 9.113281 -7.664062 8.9375 -7.25 C 8.757812 -6.832031 8.515625 -6.46875 8.203125 -6.15625 C 7.890625 -5.851562 7.523438 -5.613281 7.109375 -5.4375 C 6.691406 -5.269531 6.25 -5.1875 5.78125 -5.1875 L 2.671875 -5.171875 L 2.671875 0 L 0.90625 0 L 0.90625 -11.96875 Z M 5.78125 -6.828125 C 6.007812 -6.828125 6.226562 -6.875 6.4375 -6.96875 C 6.644531 -7.0625 6.828125 -7.1875 6.984375 -7.34375 C 7.148438 -7.5 7.273438 -7.6875 7.359375 -7.90625 C 7.453125 -8.132812 7.5 -8.367188 7.5 -8.609375 C 7.5 -8.859375 7.453125 -9.085938 7.359375 -9.296875 C 7.273438 -9.515625 7.148438 -9.707031 6.984375 -9.875 C 6.828125 -10.039062 6.644531 -10.171875 6.4375 -10.265625 C 6.226562 -10.359375 6.007812 -10.40625 5.78125 -10.40625 L 2.671875 -10.40625 L 2.671875 -6.828125 Z M 5.78125 -6.828125 "/></g></g></g><g fill="#7ed957" fill-opacity="1"><g transform="translate(158.993513, 293.331418)"><g><path d="M 6.5 -12.140625 C 7.3125 -12.140625 8.078125 -11.976562 8.796875 -11.65625 C 9.515625 -11.332031 10.140625 -10.890625 10.671875 -10.328125 C 11.210938 -9.773438 11.640625 -9.125 11.953125 -8.375 C 12.273438 -7.625 12.4375 -6.832031 12.4375 -6 C 12.4375 -5.15625 12.273438 -4.359375 11.953125 -3.609375 C 11.640625 -2.867188 11.210938 -2.21875 10.671875 -1.65625 C 10.128906 -1.101562 9.5 -0.660156 8.78125 -0.328125 C 8.0625 -0.00390625 7.296875 0.15625 6.484375 0.15625 C 5.671875 0.15625 4.90625 -0.00390625 4.1875 -0.328125 C 3.46875 -0.660156 2.835938 -1.101562 2.296875 -1.65625 C 1.765625 -2.21875 1.34375 -2.867188 1.03125 -3.609375 C 0.726562 -4.359375 0.578125 -5.15625 0.578125 -6 C 0.578125 -6.832031 0.726562 -7.625 1.03125 -8.375 C 1.34375 -9.125 1.769531 -9.773438 2.3125 -10.328125 C 2.851562 -10.890625 3.484375 -11.332031 4.203125 -11.65625 C 4.921875 -11.976562 5.6875 -12.140625 6.5 -12.140625 Z M 6.5 -1.515625 C 7.070312 -1.515625 7.609375 -1.628906 8.109375 -1.859375 C 8.617188 -2.097656 9.054688 -2.414062 9.421875 -2.8125 C 9.796875 -3.21875 10.085938 -3.691406 10.296875 -4.234375 C 10.515625 -4.785156 10.625 -5.375 10.625 -6 C 10.625 -6.613281 10.515625 -7.191406 10.296875 -7.734375 C 10.085938 -8.273438 9.796875 -8.75 9.421875 -9.15625 C 9.054688 -9.5625 8.617188 -9.878906 8.109375 -10.109375 C 7.609375 -10.335938 7.070312 -10.453125 6.5 -10.453125 C 5.925781 -10.453125 5.390625 -10.335938 4.890625 -10.109375 C 4.390625 -9.878906 3.953125 -9.5625 3.578125 -9.15625 C 3.203125 -8.75 2.90625 -8.273438 2.6875 -7.734375 C 2.46875 -7.191406 2.359375 -6.613281 2.359375 -6 C 2.359375 -5.375 2.46875 -4.785156 2.6875 -4.234375 C 2.90625 -3.691406 3.203125 -3.21875 3.578125 -2.8125 C 3.953125 -2.414062 4.390625 -2.097656 4.890625 -1.859375 C 5.390625 -1.628906 5.925781 -1.515625 6.5 -1.515625 Z M 6.5 -1.515625 "/></g></g></g><g fill="#7ed957" fill-opacity="1"><g transform="translate(176.263749, 293.331418)"><g><path d="M 10.828125 0 L 8.609375 0 L 4.84375 -5.171875 L 2.75 -5.171875 L 2.75 0 L 0.984375 0 L 0.984375 -11.96875 L 5.84375 -11.96875 C 6.3125 -11.96875 6.757812 -11.878906 7.1875 -11.703125 C 7.613281 -11.523438 7.976562 -11.28125 8.28125 -10.96875 C 8.59375 -10.664062 8.835938 -10.3125 9.015625 -9.90625 C 9.203125 -9.5 9.296875 -9.054688 9.296875 -8.578125 C 9.296875 -8.179688 9.234375 -7.804688 9.109375 -7.453125 C 8.984375 -7.109375 8.8125 -6.796875 8.59375 -6.515625 C 8.375 -6.234375 8.109375 -5.988281 7.796875 -5.78125 C 7.492188 -5.570312 7.164062 -5.421875 6.8125 -5.328125 Z M 5.84375 -6.828125 C 6.082031 -6.828125 6.304688 -6.875 6.515625 -6.96875 C 6.734375 -7.0625 6.914062 -7.1875 7.0625 -7.34375 C 7.21875 -7.5 7.335938 -7.6875 7.421875 -7.90625 C 7.515625 -8.132812 7.5625 -8.367188 7.5625 -8.609375 C 7.5625 -8.859375 7.515625 -9.085938 7.421875 -9.296875 C 7.335938 -9.515625 7.21875 -9.707031 7.0625 -9.875 C 6.914062 -10.039062 6.734375 -10.171875 6.515625 -10.265625 C 6.304688 -10.359375 6.082031 -10.40625 5.84375 -10.40625 L 2.75 -10.40625 L 2.75 -6.8125 Z M 5.84375 -6.828125 "/></g></g></g><g fill="#7ed957" fill-opacity="1"><g transform="translate(191.66051, 293.331418)"><g><path d="M 3.328125 -10.390625 L 0.078125 -10.390625 L 0.078125 -11.96875 L 8.34375 -11.96875 L 8.34375 -10.390625 L 5.078125 -10.390625 L 5.078125 0 L 3.328125 0 Z M 3.328125 -10.390625 "/></g></g></g><g fill="#7ed957" fill-opacity="1"><g transform="translate(204.795602, 293.331418)"><g><path d="M 2.109375 0 L 0.1875 0 L 5.171875 -11.96875 L 7.109375 -11.96875 L 12.09375 0 L 10.1875 0 L 8.609375 -3.75 L 3.671875 -3.75 Z M 4.34375 -5.375 L 7.9375 -5.375 L 6.140625 -9.6875 Z M 4.34375 -5.375 "/></g></g></g><g fill="#7ed957" fill-opacity="1"><g transform="translate(221.4751, 293.331418)"><g><path d="M 1 0 L 1 -11.96875 L 2.765625 -11.96875 L 2.765625 -1.640625 L 8.3125 -1.640625 L 8.3125 0 Z M 1 0 "/></g></g></g></svg>